#!OML:ASF E:\Mandelcareful walks\Project 1\Capture day 1\Session 1\Subject1.ASF
:FULLY-SPECIFIED
:DEGREES
469
root -19.6529 16.3077 0.794022 184.847 -57.0125 178.823
lowerback 21.3267 2.91649 -0.12689
upperback 9.6411 2.67929 -0.355007
thorax -1.42222 0.889587 -0.880053
lowerneck -28.063 4.80757 -0.543315
upperneck 31.3843 9.3649 -6.89865
head 16.3605 2.48143 -0.918985
rclavicle -6.95746e-016 -2.80286e-014
rhumerus -25.5823 6.36808 -79.6245
rradius 42.5514
rwrist -20.0657
rhand -17.9681 -27.0346
rfingers 7.12502
rthumb 8.30109 -56.8515
lclavicle -6.95746e-016 -2.80286e-014
lhumerus -29.0334 -8.38331 89.1142
lradius 29.2147
lwrist 16.3367
lhand -23.0537 -14.0873
lfingers 7.12502
lthumb 3.39128 15.8655
rfemur -10.4579 3.70229 10.6903
rtibia 43.1951
rfoot -7.08444 18.4252
rtoes 22.7676
lfemur -30.3443 -3.69245 -11.3835
ltibia 35.624
lfoot -6.09577 -5.06839
ltoes -12.3917
470
root -19.8229 16.3205 0.887708 184.695 -55.5109 179.086
lowerback 21.3528 3.01986 -0.132429
upperback 9.69028 2.78972 -0.285666
thorax -1.38436 0.932292 -0.82713
lowerneck -28.5303 4.85149 -0.0904733
upperneck 31.4034 9.37596 -7.25679
head 16.5325 2.47176 -1.14212
rclavicle -7.08667e-014 2.90226e-014
rhumerus -24.8371 5.9935 -79.631
rradius 42.2888
rwrist -19.8771
rhand -18.1265 -26.5065
rfingers 7.12502
rthumb 8.14821 -56.3293
lclavicle -7.08667e-014 2.90226e-014
lhumerus -28.7082 -7.94482 88.8557
lradius 29.2415
lwrist 16.5358
lhand -23.2851 -13.8873
lfingers 7.12502
lthumb 3.16775 16.069
rfemur -10.8087 4.17203 10.2244
rtibia 43.6779
rfoot -6.56395 17.8983
rtoes 22.1969
lfemur -30.0757 -2.79255 -11.8261
ltibia 36.2868
lfoot -6.75242 -4.79777
ltoes -11.3771
471
root -19.9909 16.3341 0.977749 184.843 -53.9827 178.869
lowerback 21.4116 3.15775 -0.393798
upperback 9.78993 2.88172 -0.326814
thorax -1.31647 0.95665 -0.743452
lowerneck -28.8285 4.65799 -0.185355
upperneck 31.1463 9.0039 -6.87946
head 16.4139 2.38168 -1.03338
rclavicle -2.13694e-014 -5.1684e-015
rhumerus -24.4938 6.20591 -79.803
rradius 42.4635
rwrist -20.1956
rhand -18.3299 -26.2307
rfingers 7.12502
rthumb 7.95193 -56.0611
lclavicle -2.13694e-014 -5.1684e-015
lhumerus -28.3291 -7.66748 88.461
lradius 29.2639
lwrist 16.9579
lhand -23.4113 -13.5547
lfingers 7.12502
lthumb 3.04588 16.4033
rfemur -11.0838 4.47636 9.51497
rtibia 44.1526
rfoot -6.07406 17.1772
rtoes 21.8637
lfemur -29.6299 -2.06258 -12.5161
ltibia 36.8091
lfoot -7.47814 -4.41978
ltoes -10.2453
472
root -20.1555 16.3469 1.06148 185.225 -52.4678 178.342
lowerback 21.5943 3.30958 -1.13584
upperback 9.69376 2.93108 -0.159807
thorax -1.56123 0.950584 -0.166767
lowerneck -28.7508 4.49537 -0.78697
upperneck 30.9104 8.92069 -6.59711
head 16.2231 2.33022 -0.826488
rclavicle -8.74653e-015 -5.56597e-015
rhumerus -25.0533 7.28625 -79.6121
rradius 43.6864
rwrist -20.95
rhand -18.1473 -26.246
rfingers 7.12502
rthumb 8.1282 -56.0697
lclavicle -8.74653e-015 -5.56597e-015
lhumerus -28.405 -7.00768 88.395
lradius 29.3406
lwrist 17.1593
lhand -23.5485 -13.2732
lfingers 7.12502
lthumb 2.91343 16.6867
rfemur -11.3355 4.61509 8.64839
rtibia 44.6183
rfoot -5.90527 16.3415
rtoes 21.717
lfemur -29.1903 -1.32775 -13.456
ltibia 37.3094
lfoot -8.48025 -3.95751
ltoes -9.42904
473
root -20.3261 16.3549 1.14572 185.362 -50.9257 178.154
lowerback 21.6262 3.39432 -1.34563
upperback 9.65254 2.9872 -0.153711
thorax -1.63397 0.966814 -0.0563791
lowerneck -29.0763 4.31135 -0.946
upperneck 30.6359 8.60094 -6.22
head 16.109 2.25349 -0.697202
rclavicle -2.54444e-014 6.4605e-014
rhumerus -25.4098 8.10074 -79.4424
rradius 44.7231
rwrist -21.7139
rhand -17.6226 -25.6951
rfingers 7.12502
rthumb 8.63457 -55.4985
lclavicle -2.54444e-014 6.4605e-014
lhumerus -28.3642 -6.72801 88.1648
lradius 29.3586
lwrist 17.1564
lhand -24.0465 -13.2768
lfingers 7.12502
lthumb 2.43241 16.6891
rfemur -11.616 4.511 8.00188
rtibia 45.1157
rfoot -5.98783 15.3562
rtoes 21.0751
lfemur -28.8042 -0.717016 -14.2127
ltibia 37.7802
lfoot -9.43483 -3.18225
ltoes -8.30754
474
root -20.4869 16.3584 1.23108 184.984 -49.4021 178.912
lowerback 21.3918 3.35549 -0.981096
upperback 9.62066 3.01215 -0.0393392
thorax -1.53875 0.985272 -0.137912
lowerneck -28.8926 4.47899 -0.161594
upperneck 30.123 8.57762 -6.60226
head 15.8879 2.31494 -0.98985
rclavicle -3.18055e-015 2.28602e-014
rhumerus -25.9284 8.47961 -79.4874
rradius 45.8496
rwrist -21.9766
rhand -17.2438 -25.2419
rfingers 7.12502
rthumb 9.00007 -55.0299
lclavicle -3.18055e-015 2.28602e-014
lhumerus -28.0648 -6.46058 87.8626
lradius 29.2021
lwrist 17.1144
lhand -24.4185 -13.3097
lfingers 7.12502
lthumb 2.07321 16.6599
rfemur -12.0967 4.31246 8.13765
rtibia 45.5508
rfoot -6.31901 14.0423
rtoes 18.7584
lfemur -28.8087 -0.0584334 -14.2708
ltibia 38.4035
lfoot -10.2794 -2.34351
ltoes -6.89402
475
root -20.6312 16.3574 1.31946 185.453 -48.1041 178.368
lowerback 21.4148 3.31897 -1.39302
upperback 9.58697 2.87088 -0.109718
thorax -1.60394 0.900042 0.049695
lowerneck -29.098 4.42084 -0.351879
upperneck 30.018 8.44138 -6.18709
head 15.8342 2.30572 -0.804965
rclavicle -1.70955e-014 -7.35503e-015
rhumerus -25.9228 8.56901 -79.633
rradius 46.5285
rwrist -22.0082
rhand -17.3357 -25.4514
rfingers 7.12502
rthumb 8.91144 -55.2433
lclavicle -1.70955e-014 -7.35503e-015
lhumerus -27.8704 -6.1605 87.4407
lradius 29.1659
lwrist 17.2334
lhand -24.5499 -13.3631
lfingers 7.12502
lthumb 1.94625 16.6077
rfemur -12.4054 3.70164 7.40135
rtibia 46.0639
rfoot -6.83669 12.8551
rtoes 15.1726
lfemur -28.7275 0.355797 -15.248
ltibia 38.9837
lfoot -11.1018 -1.58428
ltoes -5.76188
476
root -20.7892 16.3633 1.40626 184.852 -46.6763 179.659
lowerback 21.1278 3.18338 -0.594074
upperback 9.42912 2.8804 0.124107
thorax -1.60202 0.930422 -0.147712
lowerneck -29.0273 4.40899 -0.230994
upperneck 29.7123 8.35203 -6.20337
head 15.677 2.2994 -0.847758
rclavicle -1.28812e-013 5.58585e-014
rhumerus -25.0058 8.49568 -79.8609
rradius 46.1013
rwrist -22.0644
rhand -17.7385 -25.6512
rfingers 7.12502
rthumb 8.52272 -55.4592
lclavicle -1.28812e-013 5.58585e-014
lhumerus -28.2032 -6.09908 87.0466
lradius 29.5411
lwrist 17.4515
lhand -24.8372 -13.6056
lfingers 7.12502
lthumb 1.66883 16.3676
rfemur -13.0341 3.35157 8.01539
rtibia 46.5198
rfoot -6.97092 11.3693
rtoes 15.1643
lfemur -28.9441 0.8023 -14.8396
ltibia 39.6429
lfoot -11.8549 -0.752702
ltoes -4.74083
477
root -20.9355 16.3612 1.48183 184.85 -44.9114 179.571
lowerback 21.2333 3.33633 -1.02845
upperback 9.40772 2.9766 0.191724
thorax -1.70594 0.955308 0.143973
lowerneck -28.9489 4.4687 0.210161
upperneck 29.266 8.32467 -6.54256
head 15.4954 2.31246 -1.06454
rclavicle -2.26615e-014 3.89618e-014
rhumerus -24.9624 8.74958 -79.9637
rradius 46.6222
rwrist -22.4342
rhand -17.8222 -25.8657
rfingers 7.12502
rthumb 8.44195 -55.677
lclavicle -2.26615e-014 3.89618e-014
lhumerus -28.1889 -6.13953 86.765
lradius 29.4931
lwrist 17.4621
lhand -25.2494 -13.7313
lfingers 7.12502
lthumb 1.27072 16.2447
rfemur -13.4076 3.29989 7.65892
rtibia 47.0237
rfoot -7.25266 9.67244
rtoes 15.4639
lfemur -28.6075 1.31508 -15.4324
ltibia 40.1907
lfoot -12.544 0.268256
ltoes -4.85111
478
root -21.0826 16.3414 1.55831 184.615 -43.0808 179.81
lowerback 21.2875 3.45762 -1.03507
upperback 9.44217 3.10387 0.236348
thorax -1.70014 1.00425 0.165822
lowerneck -29.0485 4.4294 0.496624
upperneck 28.7942 8.13252 -6.57962
head 15.3038 2.28655 -1.15885
rclavicle 8.38871e-014 -2.80286e-014
rhumerus -24.8468 8.72336 -80.0615
rradius 47.0914
rwrist -22.6606
rhand -17.6754 -25.9941
rfingers 7.12502
rthumb 8.58358 -55.7996
lclavicle 8.38871e-014 -2.80286e-014
lhumerus -28.0516 -6.39314 86.4792
lradius 29.4474
lwrist 17.8133
lhand -25.5236 -13.7389
lfingers 7.12502
lthumb 1.00585 16.2384
rfemur -13.805 3.12181 7.60465
rtibia 47.4089
rfoot -7.59098 7.75347
rtoes 14.5505
lfemur -28.2931 2.13091 -15.8704
ltibia 40.7599
lfoot -13.231 1.3272
ltoes -6.90793
479
root -21.2288 16.3234 1.63134 184.344 -41.158 180.229
lowerback 21.2374 3.68883 -0.686376
upperback 9.47676 3.45172 0.377053
thorax -1.62834 1.1723 0.044559
lowerneck -29.1271 4.02412 -0.144644
upperneck 28.3029 7.61613 -5.96356
head 15.0028 2.12221 -0.896013
rclavicle -7.17613e-014 4.47266e-014
rhumerus -24.8346 8.39527 -79.8291
rradius 47.4698
rwrist -23.0449
rhand -17.833 -26.1583
rfingers 7.12502
rthumb 8.43146 -55.97
lclavicle -7.17613e-014 4.47266e-014
lhumerus -27.6783 -6.22159 86.3313
lradius 29.2009
lwrist 17.7324
lhand -25.4228 -13.7505
lfingers 7.12502
lthumb 1.10322 16.2264
rfemur -14.2899 2.78467 7.68124
rtibia 47.745
rfoot -7.84403 6.24669
rtoes 16.0782
lfemur -27.9893 3.0108 -16.1189
ltibia 41.2135
lfoot -13.96 2.38732
ltoes -8.05517
480
root -21.3671 16.3237 1.70172 184.188 -39.2126 180.561
lowerback 21.2592 4.04342 -0.365591
upperback 9.47529 3.96307 0.651244
thorax -1.64061 1.41944 0.0411994
lowerneck -29.2335 3.31459 -1.56914
upperneck 27.9016 6.89865 -4.95416
head 14.7043 1.83966 -0.388713
rclavicle 2.80286e-014 -2.94201e-014
rhumerus -24.9891 7.73157 -79.2149
rradius 47.8649
rwrist -23.1755
rhand -18.0233 -26.1752
rfingers 7.12502
rthumb 8.24784 -55.9942
lclavicle 2.80286e-014 -2.94201e-014
lhumerus -27.1226 -5.73368 86.475
lradius 28.6621
lwrist 16.7712
lhand -25.1088 -13.6859
lfingers 7.12502
lthumb 1.40645 16.2892
rfemur -14.8086 2.49293 7.70974
rtibia 47.9578
rfoot -8.21574 5.17137
rtoes 14.8497
lfemur -27.7748 3.65741 -16.2996
ltibia 41.6314
lfoot -14.8096 3.40222
ltoes -6.516
481
root -21.4959 16.3224 1.77491 184.156 -37.247 180.679
lowerback 21.3977 4.26311 -0.439424
upperback 9.48314 4.20606 0.737784
thorax -1.71463 1.52238 0.114142
lowerneck -29.5939 2.97862 -1.98002
upperneck 27.5737 6.44882 -4.43964
head 14.579 1.70064 -0.195864
rclavicle -5.92378e-014 1.94809e-014
rhumerus -24.8955 7.37755 -79.062
rradius 48.1179
rwrist -23.0336
rhand -17.9957 -25.9814
rfingers 7.12502
rthumb 8.27446 -55.7994
lclavicle -5.92378e-014 1.94809e-014
lhumerus -26.7603 -5.64651 86.3426
lradius 28.4296
lwrist 16.3932
lhand -25.1855 -13.533
lfingers 7.12502
lthumb 1.33246 16.4426
rfemur -15.3579 2.23797 7.62299
rtibia 48.0639
rfoot -8.34108 3.90752
rtoes 14.8738
lfemur -27.5437 4.45034 -16.6763
ltibia 41.9727
lfoot -15.5785 4.3548
ltoes -5.21109
482
root -21.6263 16.3185 1.84392 184.188 -35.4328 180.736
lowerback 21.3634 4.0754 -0.854806
upperback 9.52534 3.83702 0.455072
thorax -1.65846 1.31948 0.133039
lowerneck -29.9862 3.46478 -0.415813
upperneck 27.088 6.55265 -4.79247
head 14.5159 1.88871 -0.564931
rclavicle 1.11717e-013 -2.62396e-014
rhumerus -24.2767 7.69403 -80.0679
rradius 47.9488
rwrist -23.009
rhand -18.3284 -26.297
rfingers 7.12502
rthumb 7.95337 -56.1274
lclavicle 1.11717e-013 -2.62396e-014
lhumerus -26.6625 -5.22218 85.2491
lradius 28.5491
lwrist 16.6076
lhand -25.9507 -13.4619
lfingers 7.12502
lthumb 0.593317 16.517
rfemur -15.8013 1.86512 7.45471
rtibia 48.0663
rfoot -8.49169 2.58106
rtoes 16.158
lfemur -27.321 5.23872 -17.1571
ltibia 42.1938
lfoot -16.1361 5.32298
ltoes -5.09515
483
root -21.7553 16.3237 1.90645 184.238 -33.829 180.788
lowerback 21.2962 3.8515 -1.10652
upperback 9.38443 3.50596 0.50389
thorax -1.79379 1.14935 0.399987
lowerneck -29.3315 3.57886 -0.143407
upperneck 26.3278 6.53994 -4.80697
head 14.0632 1.95581 -0.619775
rclavicle 2.50469e-014 1.47101e-014
rhumerus -24.1204 7.77082 -80.4945
rradius 47.678
rwrist -23.0885
rhand -19.1011 -27.0859
rfingers 7.12502
rthumb 7.20754 -56.9432
lclavicle 2.50469e-014 1.47101e-014
lhumerus -26.9313 -3.55627 84.8464
lradius 28.3197
lwrist 15.4399
lhand -26.4746 -13.8351
lfingers 7.12502
lthumb 0.087364 16.1446
rfemur -16.0471 1.42689 7.17022
rtibia 47.9046
rfoot -8.91484 1.72852
rtoes 18.828
lfemur -27.1804 5.80576 -17.5968
ltibia 42.3789
lfoot -16.6991 6.17901
ltoes -4.12934
